<svg width="18000" height="6000" viewBox="0 0 18000 6000" fill="none" xmlns="http://www.w3.org/2000/svg">
<rect width="18000" height="6000" fill="#3C4D79"/>
<path d="M1094 1239H5794V6000H1094V1239Z" fill="#EDF3F5"/>
<path d="M3443.8 4032.2C3610.92 4032.2 3746.4 3896.72 3746.4 3729.6C3746.4 3562.48 3610.92 3427 3443.8 3427C3276.68 3427 3141.2 3562.48 3141.2 3729.6C3141.2 3896.72 3276.68 4032.2 3443.8 4032.2Z" fill="#00D8FF"/>
<path d="M3443.8 3112C3850 3112 4227.4 3170.3 4511.9 3268.2C4854.7 3386.2 5065.5 3565.1 5065.5 3727.1C5065.5 3895.9 4842.1 4086 4474 4207.9C4195.7 4300.1 3829.4 4348.3 3443.8 4348.3C3048.4 4348.3 2674.1 4303.1 2392.6 4206.9C2036.5 4085.2 1822 3892.7 1822 3727.1C1822 3566.4 2023.3 3388.9 2361.3 3271.1C2646.9 3171.6 3033.6 3112 3443.8 3112V3112Z" stroke="#00D8FF" stroke-width="144.746" stroke-miterlimit="10"/>
<path d="M2908.3 3422.07C3111.2 3070.17 3350.3 2772.37 3577.3 2574.87C3850.8 2336.87 4111.1 2243.67 4251.4 2324.57C4397.6 2408.87 4450.7 2697.37 4372.4 3077.27C4313.2 3364.47 4172 3705.77 3979.3 4039.87C3781.8 4382.37 3555.6 4684.07 3331.7 4879.87C3048.4 5127.57 2774.4 5217.17 2631 5134.47C2491.8 5054.17 2438.6 4791.17 2505.3 4439.47C2561.7 4142.07 2703.3 3777.37 2908.3 3422.07V3422.07Z" stroke="#00D8FF" stroke-width="144.746" stroke-miterlimit="10"/>
<path d="M2908.8 4038.38C2705.3 3686.78 2566.7 3330.98 2508.9 3035.68C2439.3 2679.88 2488.5 2407.78 2628.7 2326.68C2774.8 2242.08 3051.2 2340.18 3341.2 2597.68C3560.5 2792.38 3785.6 3085.18 3978.8 3418.98C4176.9 3761.18 4325.4 4107.78 4383.1 4399.48C4456.2 4768.68 4397 5050.78 4253.7 5133.68C4114.6 5214.18 3860.2 5128.98 3588.8 4895.48C3359.6 4698.18 3114.3 4393.38 2908.8 4038.38V4038.38Z" stroke="#00D8FF" stroke-width="144.746" stroke-miterlimit="10"/>
<path d="M7943.7 2540.17L8044.24 2749H8112.8L8113.15 2744.78L8004.52 2526.11C8018.58 2520.02 8031.47 2512.63 8043.19 2503.96C8054.91 2495.29 8064.98 2485.33 8073.42 2474.08C8081.86 2462.83 8088.42 2450.29 8093.11 2436.46C8098.03 2422.63 8100.49 2407.4 8100.49 2390.76C8100.49 2364.98 8095.92 2342.59 8086.78 2323.61C8077.88 2304.39 8065.57 2288.45 8049.87 2275.8C8033.93 2263.14 8015.41 2253.65 7994.32 2247.32C7973.23 2240.99 7950.73 2237.59 7926.82 2237.12H7776.7V2749H7841.39V2540.17H7943.7ZM7841.39 2486.73V2290.56H7926.82C7942.52 2290.8 7956.94 2293.02 7970.06 2297.24C7983.42 2301.46 7994.91 2307.67 8004.52 2315.88C8014.12 2324.31 8021.62 2334.74 8027.02 2347.16C8032.41 2359.35 8035.1 2373.65 8035.1 2390.05C8035.1 2405.52 8032.29 2419.23 8026.66 2431.19C8021.04 2442.91 8013.42 2452.87 8003.81 2461.07C7993.97 2469.27 7982.6 2475.6 7969.71 2480.05C7956.82 2484.27 7943.11 2486.5 7928.58 2486.73H7841.39ZM8374.71 2756.03C8411.74 2756.03 8442.8 2748.65 8467.88 2733.88C8493.19 2718.88 8512.17 2701.77 8524.83 2682.55L8485.1 2651.62C8473.15 2667.09 8458.15 2679.51 8440.1 2688.88C8422.05 2698.26 8401.43 2702.95 8378.23 2702.95C8360.65 2702.95 8344.59 2699.66 8330.06 2693.1C8315.53 2686.54 8303.11 2677.52 8292.8 2666.03C8282.72 2655.25 8274.75 2642.83 8268.89 2628.77C8263.27 2614.7 8259.63 2598.41 8257.99 2579.9V2577.44H8529.75V2548.26C8529.75 2521.77 8526.35 2497.16 8519.55 2474.43C8512.99 2451.7 8502.91 2431.89 8489.32 2415.02C8475.73 2398.38 8458.62 2385.37 8437.99 2375.99C8417.6 2366.38 8393.7 2361.58 8366.27 2361.58C8344.48 2361.58 8323.15 2366.03 8302.29 2374.94C8281.66 2383.84 8263.27 2396.62 8247.09 2413.26C8230.69 2430.13 8217.56 2450.76 8207.72 2475.13C8197.88 2499.27 8192.95 2526.7 8192.95 2557.4V2572.16C8192.95 2598.65 8197.41 2623.14 8206.31 2645.64C8215.22 2668.14 8227.64 2687.59 8243.58 2704C8259.52 2720.41 8278.62 2733.18 8300.88 2742.32C8323.38 2751.46 8347.99 2756.03 8374.71 2756.03ZM8366.27 2415.02C8382.91 2415.02 8397.21 2418.06 8409.16 2424.16C8421.35 2430.25 8431.43 2438.22 8439.4 2448.06C8447.37 2457.91 8453.58 2469.62 8458.03 2483.22C8462.48 2496.58 8464.71 2509.12 8464.71 2520.84V2524H8260.1C8262.68 2506.42 8267.13 2490.95 8273.46 2477.59C8280.02 2464 8287.99 2452.52 8297.37 2443.14C8306.74 2434 8317.29 2427.09 8329.01 2422.4C8340.73 2417.48 8353.15 2415.02 8366.27 2415.02ZM8889.05 2749H8956.9V2743.38C8952.68 2732.83 8949.4 2720.52 8947.05 2706.46C8944.71 2692.16 8943.54 2678.69 8943.54 2666.03V2489.2C8943.54 2467.87 8939.67 2449.23 8931.94 2433.3C8924.2 2417.36 8913.66 2404 8900.3 2393.22C8886.7 2382.67 8870.65 2374.82 8852.13 2369.66C8833.62 2364.27 8813.58 2361.58 8792.02 2361.58C8768.34 2361.58 8747.13 2364.86 8728.38 2371.42C8709.87 2377.98 8694.16 2386.54 8681.27 2397.09C8668.15 2407.87 8658.07 2419.94 8651.04 2433.3C8644.24 2446.66 8640.73 2460.25 8640.49 2474.08H8705.88C8705.88 2466.11 8707.76 2458.49 8711.51 2451.23C8715.49 2443.73 8721 2437.28 8728.03 2431.89C8735.06 2426.5 8743.62 2422.16 8753.7 2418.88C8764.01 2415.6 8775.61 2413.96 8788.5 2413.96C8802.33 2413.96 8814.75 2415.72 8825.77 2419.23C8837.02 2422.75 8846.51 2427.67 8854.24 2434C8861.98 2440.56 8867.95 2448.41 8872.17 2457.55C8876.39 2466.7 8878.5 2477.01 8878.5 2488.49V2518.38H8807.48C8781 2518.38 8756.98 2520.95 8735.41 2526.11C8714.09 2531.27 8695.8 2539 8680.57 2549.31C8665.34 2559.86 8653.5 2572.98 8645.06 2588.69C8636.86 2604.39 8632.76 2622.67 8632.76 2643.53C8632.76 2659.47 8635.8 2674.35 8641.9 2688.18C8648.23 2701.77 8657.13 2713.49 8668.62 2723.34C8679.87 2733.41 8693.58 2741.38 8709.75 2747.24C8726.16 2753.1 8744.44 2756.03 8764.59 2756.03C8777.02 2756.03 8788.73 2754.74 8799.75 2752.16C8810.77 2749.59 8821.2 2746.07 8831.04 2741.62C8840.65 2737.16 8849.44 2732.01 8857.41 2726.15C8865.61 2720.29 8872.99 2714.08 8879.55 2707.52C8880.26 2715.48 8881.31 2723.22 8882.72 2730.72C8884.36 2737.98 8886.47 2744.08 8889.05 2749ZM8774.09 2699.43C8761.43 2699.43 8750.3 2697.79 8740.69 2694.51C8731.08 2691.23 8723.11 2686.66 8716.78 2680.8C8710.45 2675.17 8705.65 2668.38 8702.37 2660.41C8699.32 2652.44 8697.8 2643.77 8697.8 2634.39C8697.8 2624.55 8699.55 2615.76 8703.07 2608.02C8706.82 2600.29 8712.21 2593.61 8719.24 2587.98C8729.09 2580.02 8742.33 2574.16 8758.97 2570.41C8775.84 2566.42 8795.53 2564.43 8818.03 2564.43H8878.5V2641.42C8874.75 2648.92 8869.59 2656.19 8863.03 2663.22C8856.47 2670.02 8848.73 2676.11 8839.83 2681.5C8830.69 2686.89 8820.61 2691.23 8809.59 2694.51C8798.58 2697.79 8786.74 2699.43 8774.09 2699.43ZM9233.58 2703.3C9213.19 2703.3 9196.08 2699.31 9182.25 2691.34C9168.66 2683.14 9157.76 2672.48 9149.55 2659.35C9141.12 2646.46 9135.02 2631.93 9131.27 2615.76C9127.76 2599.35 9126 2582.83 9126 2566.19V2551.42C9126 2535.02 9127.76 2518.73 9131.27 2502.55C9135.02 2486.38 9141.12 2471.73 9149.55 2458.61C9157.99 2445.72 9169.01 2435.29 9182.6 2427.32C9196.43 2419.12 9213.42 2415.02 9233.58 2415.02C9246.7 2415.02 9258.89 2417.24 9270.14 2421.7C9281.62 2426.15 9291.47 2432.24 9299.67 2439.98C9307.88 2447.71 9314.32 2456.73 9319.01 2467.05C9323.93 2477.12 9326.51 2487.91 9326.74 2499.39H9388.27C9388.27 2480.17 9384.4 2462.12 9376.66 2445.25C9368.93 2428.38 9358.27 2413.73 9344.67 2401.3C9330.84 2389.12 9314.44 2379.51 9295.45 2372.48C9276.7 2365.21 9256.08 2361.58 9233.58 2361.58C9204.75 2361.58 9179.55 2366.73 9157.99 2377.05C9136.43 2387.36 9118.5 2401.19 9104.2 2418.53C9089.67 2436.11 9078.77 2456.38 9071.51 2479.35C9064.24 2502.32 9060.61 2526.34 9060.61 2551.42V2566.19C9060.61 2591.5 9064.24 2615.64 9071.51 2638.61C9078.77 2661.34 9089.67 2681.38 9104.2 2698.73C9118.5 2716.3 9136.43 2730.25 9157.99 2740.56C9179.55 2750.88 9204.75 2756.03 9233.58 2756.03C9253.73 2756.03 9273.07 2752.63 9291.59 2745.84C9310.1 2738.8 9326.51 2729.43 9340.8 2717.71C9355.1 2706.23 9366.47 2692.87 9374.91 2677.63C9383.58 2662.16 9388.03 2645.99 9388.27 2629.12H9326.74C9326.51 2639.66 9323.7 2649.51 9318.3 2658.65C9313.15 2667.55 9306.23 2675.29 9297.56 2681.85C9288.89 2688.65 9278.93 2693.92 9267.68 2697.67C9256.66 2701.42 9245.3 2703.3 9233.58 2703.3ZM9657.91 2276.5H9592.52V2368.61H9492.68V2418.88H9592.52V2625.6C9592.52 2649.04 9595.57 2669.08 9601.66 2685.72C9607.99 2702.12 9616.55 2715.48 9627.33 2725.8C9638.11 2736.34 9650.77 2744.08 9665.3 2749C9680.06 2753.69 9695.88 2756.03 9712.76 2756.03C9722.84 2756.03 9732.91 2755.56 9742.99 2754.62C9753.3 2753.69 9763.03 2752.28 9772.17 2750.41C9781.31 2748.77 9789.75 2746.77 9797.48 2744.43C9805.22 2741.85 9811.78 2738.92 9817.17 2735.64L9808.03 2689.59C9804.05 2690.52 9798.89 2691.7 9792.56 2693.1C9786.47 2694.27 9779.91 2695.45 9772.88 2696.62C9765.61 2697.79 9758.23 2698.84 9750.73 2699.78C9743.23 2700.48 9735.96 2700.84 9728.93 2700.84C9719.32 2700.84 9710.18 2699.66 9701.51 2697.32C9693.07 2694.98 9685.57 2690.88 9679.01 2685.02C9672.45 2679.39 9667.29 2671.77 9663.54 2662.16C9659.79 2652.55 9657.91 2640.37 9657.91 2625.6V2418.88H9802.76V2368.61H9657.91V2276.5ZM10176.5 2237.12V2593.26C10176 2607.79 10173.4 2621.62 10168.7 2634.74C10164.3 2647.63 10157.8 2659 10149.4 2668.84C10140.7 2678.69 10130.3 2686.54 10118.1 2692.4C10105.9 2698.02 10092.1 2700.84 10076.6 2700.84C10061.6 2700.84 10048 2698.38 10035.8 2693.45C10023.9 2688.53 10013.6 2681.5 10004.9 2672.36C9996.23 2663.45 9989.32 2652.91 9984.16 2640.72C9979.24 2628.53 9976.43 2615.29 9975.73 2600.99H9909.63C9911.74 2624.66 9917.13 2646.11 9925.8 2665.33C9934.48 2684.31 9946.08 2700.48 9960.61 2713.84C9974.91 2727.44 9991.78 2737.87 10011.2 2745.13C10030.9 2752.4 10052.7 2756.03 10076.6 2756.03C10100.3 2756.03 10122.1 2752.05 10142 2744.08C10162.2 2735.88 10179.6 2724.51 10194.4 2709.98C10209.2 2695.68 10220.8 2678.57 10229.2 2658.65C10237.9 2638.73 10242.4 2616.93 10242.9 2593.26V2237.12H10176.5ZM10636.7 2619.62C10636.7 2633.69 10633.6 2645.88 10627.5 2656.19C10621.4 2666.27 10613.6 2674.59 10604 2681.15C10594.4 2687.95 10583.3 2692.98 10570.9 2696.27C10558.7 2699.31 10546.3 2700.84 10533.7 2700.84C10517.7 2700.84 10503 2698.73 10489.4 2694.51C10476 2690.05 10464.2 2683.49 10453.9 2674.82C10443.5 2666.38 10435.1 2656.07 10428.5 2643.88C10422 2631.46 10417.6 2617.28 10415.5 2601.34H10349.1C10349.8 2623.38 10354.6 2643.41 10363.5 2661.46C10372.6 2679.27 10384.9 2694.86 10400.4 2708.22C10417.8 2723.69 10438.1 2735.52 10461.6 2743.73C10485.3 2751.93 10509.3 2756.03 10533.7 2756.03C10554 2756.03 10574.4 2753.22 10594.8 2747.59C10615.2 2741.73 10633.5 2733.06 10649.7 2721.58C10665.8 2710.33 10679 2696.15 10689 2679.04C10699.4 2661.93 10704.5 2641.89 10704.5 2618.92C10704.5 2596.19 10699.7 2576.15 10690.1 2558.8C10680.7 2541.46 10668.3 2526.81 10652.8 2514.86C10637.1 2501.97 10619.8 2491.42 10600.8 2483.22C10581.8 2474.78 10562.8 2467.63 10543.9 2461.77C10532.4 2458.26 10520.1 2454.16 10506.9 2449.47C10494 2444.78 10482.1 2438.92 10471.1 2431.89C10459.8 2424.86 10450.6 2416.3 10443.3 2406.23C10436 2395.91 10432.3 2383.38 10432.1 2368.61C10432.1 2355.02 10434.8 2343.06 10440.1 2332.75C10445.8 2322.44 10453.3 2313.77 10462.6 2306.73C10471.8 2299.7 10482.2 2294.43 10493.9 2290.91C10505.9 2287.4 10518.1 2285.64 10530.5 2285.64C10546 2285.64 10559.8 2288.1 10572 2293.02C10584.4 2297.71 10595.1 2304.39 10604 2313.06C10612.9 2321.73 10620 2332.16 10625.4 2344.35C10630.8 2356.3 10634.4 2369.66 10636.3 2384.43H10703.1C10702.6 2360.99 10697.6 2339.78 10688 2320.8C10678.4 2301.81 10665.6 2285.64 10649.7 2272.28C10633.7 2258.92 10615.5 2248.61 10594.8 2241.34C10574.2 2233.84 10552.8 2230.09 10530.5 2230.09C10510.3 2230.09 10490.3 2233.26 10470.4 2239.59C10450.5 2245.68 10432.6 2254.7 10416.9 2266.66C10401.2 2278.61 10388.5 2293.26 10378.6 2310.6C10369 2327.95 10364.2 2347.63 10364.2 2369.66C10364.2 2391.7 10369 2410.91 10378.6 2427.32C10388.5 2443.49 10401.1 2457.55 10416.6 2469.51C10431.8 2481.23 10448.7 2491.3 10467.2 2499.74C10486 2507.95 10504.4 2514.98 10522.4 2520.84C10534.8 2524.82 10547.7 2529.27 10561.1 2534.2C10574.7 2539.12 10587.1 2545.21 10598.3 2552.48C10609.6 2559.98 10618.7 2569.12 10625.8 2579.9C10633 2590.68 10636.7 2603.92 10636.7 2619.62ZM11232.9 2749H11396.7C11418.5 2748.77 11439.6 2745.37 11460 2738.8C11480.6 2732.24 11498.8 2722.75 11514.5 2710.33C11530.2 2698.14 11542.8 2682.91 11552.1 2664.62C11561.5 2646.34 11566.1 2625.25 11565.8 2601.34C11565.8 2586.11 11563.5 2571.93 11558.8 2558.8C11554.4 2545.68 11548 2533.84 11539.8 2523.3C11532.1 2513.69 11522.2 2504.9 11510.3 2496.93C11498.3 2488.96 11485.9 2483.45 11473 2480.41V2479.35C11485.5 2473.96 11496 2468.22 11504.7 2462.12C11513.6 2456.03 11521.7 2448.53 11528.9 2439.62C11536 2430.95 11541.5 2421.11 11545.5 2410.09C11549.7 2399.08 11551.9 2386.89 11552.1 2373.53C11552.4 2349.62 11547.8 2329.12 11538.4 2312.01C11529 2294.9 11516.5 2280.84 11500.8 2269.82C11485.1 2258.8 11467.2 2250.72 11447 2245.56C11426.9 2240.17 11406.2 2237.36 11385.1 2237.12H11232.9V2749ZM11298.3 2509.59H11402C11415.8 2510.05 11428.7 2512.4 11440.7 2516.62C11452.6 2520.84 11463.1 2526.81 11472 2534.55C11480.9 2542.52 11487.8 2552.12 11492.7 2563.38C11497.9 2574.62 11500.3 2587.52 11500.1 2602.05C11500.1 2616.34 11497.3 2629.12 11491.7 2640.37C11486.3 2651.62 11478.9 2661.11 11469.5 2668.84C11460.1 2676.58 11449.4 2682.67 11437.2 2687.12C11425 2691.34 11412.1 2693.57 11398.5 2693.8H11298.3V2509.59ZM11298.3 2455.45V2292.67H11387.2C11399.9 2292.91 11412.2 2294.55 11424.2 2297.59C11436.4 2300.64 11447.1 2305.33 11456.5 2311.66C11465.6 2318.22 11472.9 2326.54 11478.3 2336.62C11483.9 2346.7 11486.7 2358.88 11486.7 2373.18C11486.7 2386.54 11483.9 2398.26 11478.3 2408.34C11472.7 2418.41 11465.3 2426.85 11456.2 2433.65C11447 2440.68 11436.6 2446.07 11424.9 2449.82C11413.1 2453.34 11401.2 2455.21 11389 2455.45H11298.3ZM11916 2749H11983.9V2743.38C11979.6 2732.83 11976.4 2720.52 11974 2706.46C11971.7 2692.16 11970.5 2678.69 11970.5 2666.03V2489.2C11970.5 2467.87 11966.6 2449.23 11958.9 2433.3C11951.2 2417.36 11940.6 2404 11927.2 2393.22C11913.7 2382.67 11897.6 2374.82 11879.1 2369.66C11860.6 2364.27 11840.5 2361.58 11819 2361.58C11795.3 2361.58 11774.1 2364.86 11755.3 2371.42C11736.8 2377.98 11721.1 2386.54 11708.2 2397.09C11695.1 2407.87 11685 2419.94 11678 2433.3C11671.2 2446.66 11667.7 2460.25 11667.4 2474.08H11732.8C11732.8 2466.11 11734.7 2458.49 11738.5 2451.23C11742.4 2443.73 11748 2437.28 11755 2431.89C11762 2426.5 11770.6 2422.16 11780.6 2418.88C11791 2415.6 11802.6 2413.96 11815.5 2413.96C11829.3 2413.96 11841.7 2415.72 11852.7 2419.23C11864 2422.75 11873.5 2427.67 11881.2 2434C11888.9 2440.56 11894.9 2448.41 11899.1 2457.55C11903.3 2466.7 11905.5 2477.01 11905.5 2488.49V2518.38H11834.4C11808 2518.38 11783.9 2520.95 11762.4 2526.11C11741 2531.27 11722.8 2539 11707.5 2549.31C11692.3 2559.86 11680.5 2572.98 11672 2588.69C11663.8 2604.39 11659.7 2622.67 11659.7 2643.53C11659.7 2659.47 11662.8 2674.35 11668.9 2688.18C11675.2 2701.77 11684.1 2713.49 11695.6 2723.34C11706.8 2733.41 11720.5 2741.38 11736.7 2747.24C11753.1 2753.1 11771.4 2756.03 11791.5 2756.03C11804 2756.03 11815.7 2754.74 11826.7 2752.16C11837.7 2749.59 11848.1 2746.07 11858 2741.62C11867.6 2737.16 11876.4 2732.01 11884.4 2726.15C11892.6 2720.29 11899.9 2714.08 11906.5 2707.52C11907.2 2715.48 11908.3 2723.22 11909.7 2730.72C11911.3 2737.98 11913.4 2744.08 11916 2749ZM11801 2699.43C11788.4 2699.43 11777.2 2697.79 11767.6 2694.51C11758 2691.23 11750.1 2686.66 11743.7 2680.8C11737.4 2675.17 11732.6 2668.38 11729.3 2660.41C11726.3 2652.44 11724.8 2643.77 11724.8 2634.39C11724.8 2624.55 11726.5 2615.76 11730 2608.02C11733.8 2600.29 11739.2 2593.61 11746.2 2587.98C11756 2580.02 11769.3 2574.16 11785.9 2570.41C11802.8 2566.42 11822.5 2564.43 11845 2564.43H11905.5V2641.42C11901.7 2648.92 11896.5 2656.19 11890 2663.22C11883.4 2670.02 11875.7 2676.11 11866.8 2681.5C11857.6 2686.89 11847.6 2691.23 11836.5 2694.51C11825.5 2697.79 11813.7 2699.43 11801 2699.43ZM12351.2 2648.1C12351.2 2654.2 12350.1 2659.94 12347.7 2665.33C12345.4 2670.72 12342 2675.64 12337.5 2680.09C12330.3 2687.36 12320.2 2693.1 12307.3 2697.32C12294.4 2701.3 12279.3 2703.3 12261.9 2703.3C12250.9 2703.3 12239.8 2702.12 12228.5 2699.78C12217.3 2697.44 12207.1 2693.45 12198 2687.83C12188.6 2682.2 12180.7 2674.82 12174.4 2665.68C12168.3 2656.54 12164.8 2645.29 12163.9 2631.93H12098.8C12098.8 2648.1 12102.4 2663.69 12109.7 2678.69C12117.2 2693.69 12128 2706.81 12142.1 2718.06C12155.9 2729.55 12172.9 2738.8 12193 2745.84C12213.2 2752.63 12236.2 2756.03 12261.9 2756.03C12284.4 2756.03 12305.2 2753.34 12324.2 2747.95C12343.1 2742.55 12359.4 2734.94 12373 2725.09C12386.6 2715.25 12397.2 2703.41 12404.7 2689.59C12412.4 2675.76 12416.3 2660.41 12416.3 2643.53C12416.3 2627.83 12412.9 2614 12406.1 2602.05C12399.5 2590.09 12389.9 2579.55 12377.2 2570.41C12364.6 2561.5 12349 2553.88 12330.5 2547.55C12312 2540.99 12291 2535.25 12267.6 2530.33C12249.8 2526.81 12235 2523.18 12223.3 2519.43C12211.8 2515.68 12202.6 2511.46 12195.8 2506.77C12188.8 2502.09 12183.9 2496.81 12181.1 2490.95C12178.3 2485.09 12176.9 2478.41 12176.9 2470.91C12176.9 2463.65 12178.6 2456.62 12182.1 2449.82C12185.6 2443.02 12190.9 2437.05 12198 2431.89C12204.8 2426.73 12213.3 2422.63 12223.6 2419.59C12234.2 2416.54 12246.4 2415.02 12260.2 2415.02C12273.5 2415.02 12285.5 2416.89 12296 2420.64C12306.8 2424.39 12316 2429.31 12323.5 2435.41C12331 2441.5 12336.8 2448.53 12341 2456.5C12345.3 2464.23 12347.4 2472.2 12347.4 2480.41H12412.4C12412.4 2463.77 12408.8 2448.3 12401.5 2434C12394.5 2419.47 12384.4 2406.81 12371.3 2396.03C12358.1 2385.25 12342.2 2376.81 12323.5 2370.72C12304.7 2364.62 12283.6 2361.58 12260.2 2361.58C12238.4 2361.58 12218.3 2364.51 12200.1 2370.37C12182 2376.23 12166.4 2384.2 12153.3 2394.27C12140.2 2404.35 12130 2416.19 12122.7 2429.78C12115.5 2443.14 12111.8 2457.55 12111.8 2473.02C12111.8 2488.73 12115.3 2502.55 12122.4 2514.51C12129.4 2526.23 12139.4 2536.42 12152.2 2545.09C12164.9 2554 12180.1 2561.62 12198 2567.95C12216 2574.27 12235.9 2579.66 12257.7 2584.12C12275.5 2587.63 12290.4 2591.62 12302.4 2596.07C12314.3 2600.29 12323.9 2604.98 12331.2 2610.13C12338.5 2615.29 12343.6 2621.03 12346.7 2627.36C12349.7 2633.45 12351.2 2640.37 12351.2 2648.1ZM12698.9 2756.03C12736 2756.03 12767 2748.65 12792.1 2733.88C12817.4 2718.88 12836.4 2701.77 12849 2682.55L12809.3 2651.62C12797.4 2667.09 12782.4 2679.51 12764.3 2688.88C12746.3 2698.26 12725.6 2702.95 12702.4 2702.95C12684.9 2702.95 12668.8 2699.66 12654.3 2693.1C12639.8 2686.54 12627.3 2677.52 12617 2666.03C12606.9 2655.25 12599 2642.83 12593.1 2628.77C12587.5 2614.7 12583.9 2598.41 12582.2 2579.9V2577.44H12854V2548.26C12854 2521.77 12850.6 2497.16 12843.8 2474.43C12837.2 2451.7 12827.1 2431.89 12813.5 2415.02C12799.9 2398.38 12782.8 2385.37 12762.2 2375.99C12741.8 2366.38 12717.9 2361.58 12690.5 2361.58C12668.7 2361.58 12647.4 2366.03 12626.5 2374.94C12605.9 2383.84 12587.5 2396.62 12571.3 2413.26C12554.9 2430.13 12541.8 2450.76 12531.9 2475.13C12522.1 2499.27 12517.2 2526.7 12517.2 2557.4V2572.16C12517.2 2598.65 12521.6 2623.14 12530.5 2645.64C12539.4 2668.14 12551.9 2687.59 12567.8 2704C12583.7 2720.41 12602.8 2733.18 12625.1 2742.32C12647.6 2751.46 12672.2 2756.03 12698.9 2756.03ZM12690.5 2415.02C12707.1 2415.02 12721.4 2418.06 12733.4 2424.16C12745.6 2430.25 12755.6 2438.22 12763.6 2448.06C12771.6 2457.91 12777.8 2469.62 12782.2 2483.22C12786.7 2496.58 12788.9 2509.12 12788.9 2520.84V2524H12584.3C12586.9 2506.42 12591.4 2490.95 12597.7 2477.59C12604.2 2464 12612.2 2452.52 12621.6 2443.14C12631 2434 12641.5 2427.09 12653.2 2422.4C12664.9 2417.48 12677.4 2415.02 12690.5 2415.02ZM13741 2292.67V2237.12H13361.3V2292.67H13519.5V2749H13582.8V2292.67H13741ZM13996.2 2756.03C14033.2 2756.03 14064.3 2748.65 14089.4 2733.88C14114.7 2718.88 14133.7 2701.77 14146.3 2682.55L14106.6 2651.62C14094.6 2667.09 14079.6 2679.51 14061.6 2688.88C14043.5 2698.26 14022.9 2702.95 13999.7 2702.95C13982.1 2702.95 13966.1 2699.66 13951.5 2693.1C13937 2686.54 13924.6 2677.52 13914.3 2666.03C13904.2 2655.25 13896.2 2642.83 13890.4 2628.77C13884.8 2614.7 13881.1 2598.41 13879.5 2579.9V2577.44H14151.2V2548.26C14151.2 2521.77 14147.8 2497.16 14141 2474.43C14134.5 2451.7 14124.4 2431.89 14110.8 2415.02C14097.2 2398.38 14080.1 2385.37 14059.5 2375.99C14039.1 2366.38 14015.2 2361.58 13987.8 2361.58C13966 2361.58 13944.6 2366.03 13923.8 2374.94C13903.1 2383.84 13884.8 2396.62 13868.6 2413.26C13852.2 2430.13 13839 2450.76 13829.2 2475.13C13819.4 2499.27 13814.4 2526.7 13814.4 2557.4V2572.16C13814.4 2598.65 13818.9 2623.14 13827.8 2645.64C13836.7 2668.14 13849.1 2687.59 13865.1 2704C13881 2720.41 13900.1 2733.18 13922.4 2742.32C13944.9 2751.46 13969.5 2756.03 13996.2 2756.03ZM13987.8 2415.02C14004.4 2415.02 14018.7 2418.06 14030.6 2424.16C14042.8 2430.25 14052.9 2438.22 14060.9 2448.06C14068.9 2457.91 14075.1 2469.62 14079.5 2483.22C14084 2496.58 14086.2 2509.12 14086.2 2520.84V2524H13881.6C13884.2 2506.42 13888.6 2490.95 13894.9 2477.59C13901.5 2464 13909.5 2452.52 13918.9 2443.14C13928.2 2434 13938.8 2427.09 13950.5 2422.4C13962.2 2417.48 13974.6 2415.02 13987.8 2415.02ZM14290.5 2368.61H14232.1V2749H14294V2446.3C14295.4 2442.55 14297.1 2439.04 14299.2 2435.76C14301.6 2432.48 14304.3 2429.55 14307.3 2426.97C14311.3 2423.69 14316.1 2421.23 14321.7 2419.59C14327.6 2417.71 14334.4 2416.77 14342.1 2416.77C14349.2 2416.77 14355.3 2417.71 14360.4 2419.59C14365.8 2421.23 14370.3 2423.92 14373.8 2427.67C14377.5 2431.66 14380.2 2436.7 14381.9 2442.79C14383.7 2448.88 14384.7 2455.91 14384.7 2463.88V2749H14446.5V2464.23C14446.5 2462.83 14446.5 2461.66 14446.5 2460.72C14446.5 2459.55 14446.5 2458.38 14446.5 2457.2C14447.2 2451.34 14448.7 2446.07 14450.8 2441.38C14452.9 2436.46 14455.8 2432.12 14459.6 2428.38C14463.3 2424.86 14468 2422.05 14473.6 2419.94C14479.2 2417.83 14485.9 2416.77 14493.7 2416.77C14500.9 2416.77 14507.2 2417.71 14512.6 2419.59C14518.3 2421.46 14523 2424.27 14526.7 2428.02C14530.2 2432.01 14532.9 2437.05 14534.8 2443.14C14536.7 2449.23 14537.6 2456.27 14537.6 2464.23V2749H14599.5V2464.94C14599.5 2446.66 14597.4 2430.84 14593.1 2417.48C14588.9 2403.88 14582.8 2392.87 14574.9 2384.43C14567.6 2376.93 14558.7 2371.3 14548.1 2367.55C14537.6 2363.57 14525.8 2361.58 14512.6 2361.58C14503 2361.81 14494.1 2363.1 14485.9 2365.45C14478 2367.79 14470.7 2370.95 14464.1 2374.94C14459 2378.45 14454.2 2382.55 14449.7 2387.24C14445.3 2391.93 14441.4 2396.97 14438.1 2402.36C14435.5 2396.5 14432.4 2391.23 14428.6 2386.54C14425.1 2381.85 14421.1 2377.87 14416.7 2374.59C14410.6 2370.37 14403.4 2367.2 14395.2 2365.09C14387.2 2362.75 14378.2 2361.58 14368.1 2361.58C14350.3 2361.81 14335.1 2365.68 14322.4 2373.18C14310 2380.68 14299.9 2391.11 14292.2 2404.47L14290.5 2368.61ZM14692.6 2895.25H14757.7V2712.44C14762.4 2717.59 14767.4 2722.4 14772.8 2726.85C14778.2 2731.07 14783.9 2734.94 14790 2738.45C14800.1 2744.08 14811.4 2748.41 14823.8 2751.46C14836.4 2754.51 14850 2756.03 14864.6 2756.03C14888.5 2756.03 14909.7 2751.11 14928.2 2741.27C14946.9 2731.42 14962.6 2717.83 14975.3 2700.48C14988 2683.14 14997.6 2662.75 15004.1 2639.31C15010.7 2615.64 15014 2590.21 15014 2563.02V2555.64C15014 2527.28 15010.7 2501.27 15004.1 2477.59C14997.6 2453.69 14988 2433.18 14975.3 2416.07C14962.6 2398.96 14946.9 2385.6 14928.2 2375.99C14909.4 2366.38 14887.9 2361.58 14863.5 2361.58C14849.7 2361.58 14836.7 2363.1 14824.5 2366.15C14812.5 2368.96 14801.6 2373.18 14791.8 2378.8C14784.8 2382.55 14778.2 2387.12 14772.1 2392.52C14766 2397.67 14760.4 2403.53 14755.2 2410.09L14752.1 2368.61H14692.6V2895.25ZM14948.9 2555.64V2563.02C14948.9 2581.54 14946.8 2599.23 14942.6 2616.11C14938.6 2632.98 14932.4 2647.87 14924 2660.76C14915.5 2673.65 14904.8 2683.96 14891.6 2691.7C14878.5 2699.2 14862.9 2702.95 14844.9 2702.95C14833.6 2702.95 14823.3 2701.54 14813.9 2698.73C14804.8 2695.91 14796.5 2692.05 14789 2687.12C14782.4 2682.91 14776.5 2677.75 14771.4 2671.66C14766.2 2665.56 14761.7 2659 14757.7 2651.97V2468.8C14762.1 2460.84 14767.3 2453.57 14773.1 2447.01C14779 2440.45 14785.7 2434.94 14793.2 2430.48C14800 2426.03 14807.6 2422.63 14816 2420.29C14824.7 2417.95 14834.1 2416.77 14844.2 2416.77C14862.4 2416.77 14878.1 2420.52 14891.3 2428.02C14904.4 2435.52 14915.3 2445.6 14924 2458.26C14932.4 2471.15 14938.6 2486.03 14942.6 2502.91C14946.8 2519.55 14948.9 2537.12 14948.9 2555.64ZM15135.6 2209V2265.6H15265V2692.75H15135.6V2749H15454.1V2692.75H15330V2209H15135.6ZM15807.8 2749H15875.6V2743.38C15871.4 2732.83 15868.1 2720.52 15865.8 2706.46C15863.5 2692.16 15862.3 2678.69 15862.3 2666.03V2489.2C15862.3 2467.87 15858.4 2449.23 15850.7 2433.3C15843 2417.36 15832.4 2404 15819 2393.22C15805.5 2382.67 15789.4 2374.82 15770.9 2369.66C15752.4 2364.27 15732.3 2361.58 15710.8 2361.58C15687.1 2361.58 15665.9 2364.86 15647.1 2371.42C15628.6 2377.98 15612.9 2386.54 15600 2397.09C15586.9 2407.87 15576.8 2419.94 15569.8 2433.3C15563 2446.66 15559.5 2460.25 15559.2 2474.08H15624.6C15624.6 2466.11 15626.5 2458.49 15630.3 2451.23C15634.2 2443.73 15639.8 2437.28 15646.8 2431.89C15653.8 2426.5 15662.4 2422.16 15672.4 2418.88C15682.8 2415.6 15694.4 2413.96 15707.2 2413.96C15721.1 2413.96 15733.5 2415.72 15744.5 2419.23C15755.8 2422.75 15765.3 2427.67 15773 2434C15780.7 2440.56 15786.7 2448.41 15790.9 2457.55C15795.1 2466.7 15797.2 2477.01 15797.2 2488.49V2518.38H15726.2C15699.8 2518.38 15675.7 2520.95 15654.2 2526.11C15632.8 2531.27 15614.6 2539 15599.3 2549.31C15584.1 2559.86 15572.2 2572.98 15563.8 2588.69C15555.6 2604.39 15551.5 2622.67 15551.5 2643.53C15551.5 2659.47 15554.6 2674.35 15560.6 2688.18C15567 2701.77 15575.9 2713.49 15587.4 2723.34C15598.6 2733.41 15612.3 2741.38 15628.5 2747.24C15644.9 2753.1 15663.2 2756.03 15683.3 2756.03C15695.8 2756.03 15707.5 2754.74 15718.5 2752.16C15729.5 2749.59 15739.9 2746.07 15749.8 2741.62C15759.4 2737.16 15768.2 2732.01 15776.2 2726.15C15784.4 2720.29 15791.7 2714.08 15798.3 2707.52C15799 2715.48 15800.1 2723.22 15801.5 2730.72C15803.1 2737.98 15805.2 2744.08 15807.8 2749ZM15692.8 2699.43C15680.2 2699.43 15669 2697.79 15659.4 2694.51C15649.8 2691.23 15641.9 2686.66 15635.5 2680.8C15629.2 2675.17 15624.4 2668.38 15621.1 2660.41C15618.1 2652.44 15616.5 2643.77 15616.5 2634.39C15616.5 2624.55 15618.3 2615.76 15621.8 2608.02C15625.6 2600.29 15631 2593.61 15638 2587.98C15647.8 2580.02 15661.1 2574.16 15677.7 2570.41C15694.6 2566.42 15714.3 2564.43 15736.8 2564.43H15797.2V2641.42C15793.5 2648.92 15788.3 2656.19 15781.8 2663.22C15775.2 2670.02 15767.5 2676.11 15758.6 2681.5C15749.4 2686.89 15739.4 2691.23 15728.3 2694.51C15717.3 2697.79 15705.5 2699.43 15692.8 2699.43ZM16144.2 2276.5H16078.9V2368.61H15979V2418.88H16078.9V2625.6C16078.9 2649.04 16081.9 2669.08 16088 2685.72C16094.3 2702.12 16102.9 2715.48 16113.7 2725.8C16124.4 2736.34 16137.1 2744.08 16151.6 2749C16166.4 2753.69 16182.2 2756.03 16199.1 2756.03C16209.2 2756.03 16219.2 2755.56 16229.3 2754.62C16239.6 2753.69 16249.4 2752.28 16258.5 2750.41C16267.6 2748.77 16276.1 2746.77 16283.8 2744.43C16291.5 2741.85 16298.1 2738.92 16303.5 2735.64L16294.4 2689.59C16290.4 2690.52 16285.2 2691.7 16278.9 2693.1C16272.8 2694.27 16266.2 2695.45 16259.2 2696.62C16251.9 2697.79 16244.6 2698.84 16237.1 2699.78C16229.6 2700.48 16222.3 2700.84 16215.3 2700.84C16205.6 2700.84 16196.5 2699.66 16187.8 2697.32C16179.4 2694.98 16171.9 2690.88 16165.3 2685.02C16158.8 2679.39 16153.6 2671.77 16149.9 2662.16C16146.1 2652.55 16144.2 2640.37 16144.2 2625.6V2418.88H16289.1V2368.61H16144.2V2276.5ZM16590.7 2756.03C16627.8 2756.03 16658.8 2748.65 16683.9 2733.88C16709.2 2718.88 16728.2 2701.77 16740.8 2682.55L16701.1 2651.62C16689.2 2667.09 16674.2 2679.51 16656.1 2688.88C16638.1 2698.26 16617.4 2702.95 16594.2 2702.95C16576.7 2702.95 16560.6 2699.66 16546.1 2693.1C16531.5 2686.54 16519.1 2677.52 16508.8 2666.03C16498.7 2655.25 16490.8 2642.83 16484.9 2628.77C16479.3 2614.7 16475.6 2598.41 16474 2579.9V2577.44H16745.8V2548.26C16745.8 2521.77 16742.4 2497.16 16735.6 2474.43C16729 2451.7 16718.9 2431.89 16705.3 2415.02C16691.7 2398.38 16674.6 2385.37 16654 2375.99C16633.6 2366.38 16609.7 2361.58 16582.3 2361.58C16560.5 2361.58 16539.2 2366.03 16518.3 2374.94C16497.7 2383.84 16479.3 2396.62 16463.1 2413.26C16446.7 2430.13 16433.6 2450.76 16423.7 2475.13C16413.9 2499.27 16409 2526.7 16409 2557.4V2572.16C16409 2598.65 16413.4 2623.14 16422.3 2645.64C16431.2 2668.14 16443.7 2687.59 16459.6 2704C16475.5 2720.41 16494.6 2733.18 16516.9 2742.32C16539.4 2751.46 16564 2756.03 16590.7 2756.03ZM16582.3 2415.02C16598.9 2415.02 16613.2 2418.06 16625.2 2424.16C16637.4 2430.25 16647.4 2438.22 16655.4 2448.06C16663.4 2457.91 16669.6 2469.62 16674 2483.22C16678.5 2496.58 16680.7 2509.12 16680.7 2520.84V2524H16476.1C16478.7 2506.42 16483.1 2490.95 16489.5 2477.59C16496 2464 16504 2452.52 16513.4 2443.14C16522.8 2434 16533.3 2427.09 16545 2422.4C16556.7 2417.48 16569.2 2415.02 16582.3 2415.02ZM11486.4 3699H11537.7L11596.4 3465.91L11605.9 3406.85L11615.8 3465.91L11675.2 3699H11726.5L11807.4 3318.61H11749.7L11707.5 3561.19L11698 3620.95L11687.8 3561.19L11627.4 3318.61H11585.5L11524.7 3561.19L11515.2 3615.68L11507.5 3561.19L11463.2 3318.61H11405.5L11486.4 3699ZM11892.4 3318.61V3375.21H12021.8V3642.75H11892.4V3699H12211V3642.75H12086.9V3318.61H11892.4ZM12013.4 3218.77C12013.4 3229.31 12016.5 3238.1 12022.9 3245.13C12029.4 3252.16 12039.3 3255.68 12052.4 3255.68C12065.3 3255.68 12075 3252.16 12081.6 3245.13C12088.1 3238.1 12091.4 3229.31 12091.4 3218.77C12091.4 3212.91 12090.5 3207.52 12088.6 3202.59C12086.7 3197.67 12083.9 3193.57 12080.2 3190.29C12077.1 3187.24 12073.3 3184.9 12068.6 3183.26C12063.9 3181.38 12058.5 3180.45 12052.4 3180.45C12046.3 3180.45 12040.8 3181.38 12035.9 3183.26C12031.2 3184.9 12027.3 3187.24 12024.3 3190.29C12020.5 3193.8 12017.7 3198.02 12015.8 3202.95C12014.2 3207.87 12013.4 3213.14 12013.4 3218.77ZM12468.7 3226.5H12403.3V3318.61H12303.4V3368.88H12403.3V3575.6C12403.3 3599.04 12406.3 3619.08 12412.4 3635.72C12418.7 3652.12 12427.3 3665.48 12438.1 3675.8C12448.9 3686.34 12461.5 3694.08 12476 3699C12490.8 3703.69 12506.6 3706.03 12523.5 3706.03C12533.6 3706.03 12543.7 3705.56 12553.7 3704.62C12564 3703.69 12573.8 3702.28 12582.9 3700.41C12592.1 3698.77 12600.5 3696.77 12608.2 3694.43C12616 3691.85 12622.5 3688.92 12627.9 3685.64L12618.8 3639.59C12614.8 3640.52 12609.6 3641.7 12603.3 3643.1C12597.2 3644.27 12590.6 3645.45 12583.6 3646.62C12576.4 3647.79 12569 3648.84 12561.5 3649.78C12554 3650.48 12546.7 3650.84 12539.7 3650.84C12530.1 3650.84 12520.9 3649.66 12512.2 3647.32C12503.8 3644.98 12496.3 3640.88 12489.8 3635.02C12483.2 3629.39 12478 3621.77 12474.3 3612.16C12470.5 3602.55 12468.7 3590.37 12468.7 3575.6V3368.88H12613.5V3318.61H12468.7V3226.5ZM12812.1 3375.21V3159H12747.1V3699H12812.1V3422.67C12816.8 3415.17 12822.1 3408.38 12828 3402.28C12834 3395.95 12840.6 3390.45 12847.6 3385.76C12856.5 3379.66 12866.3 3374.98 12876.8 3371.7C12887.4 3368.41 12898.5 3366.77 12910.2 3366.77C12924.5 3366.54 12937.2 3368.53 12948.2 3372.75C12959.2 3376.73 12968.3 3382.83 12975.6 3391.03C12982.4 3398.53 12987.6 3408.02 12991.1 3419.51C12994.6 3430.76 12996.4 3443.88 12996.4 3458.88V3699H13061.4V3459.59C13061.4 3434.04 13058.2 3412.01 13051.9 3393.49C13045.8 3374.74 13037 3359.27 13025.5 3347.09C13014 3334.9 13000.1 3325.99 12983.7 3320.37C12967.5 3314.51 12949.5 3311.58 12929.6 3311.58C12914.3 3311.81 12899.9 3314.04 12886.3 3318.26C12873 3322.48 12860.6 3328.69 12849.4 3336.89C12842.4 3341.81 12835.7 3347.55 12829.4 3354.12C12823 3360.45 12817.3 3367.48 12812.1 3375.21Z" fill="white"/>
<rect x="7404" y="4290" width="9698" height="1710" fill="#425483"/>
<g clip-path="url(#clip0)">
<path d="M8102 5145V5745H9302.04V4544.96H8102V5145ZM9069.07 5097.19C9099.54 5104.8 9122.79 5118.34 9144.13 5140.43C9155.19 5152.24 9171.56 5173.76 9172.89 5178.9C9173.26 5180.4 9121.08 5215.46 9089.45 5235.1C9088.33 5235.85 9083.73 5230.91 9078.57 5223.28C9063.14 5200.78 9046.96 5191.09 9022.19 5189.38C8985.82 5186.91 8962.19 5205.96 8962.57 5237.76C8962.57 5247.1 8963.88 5252.61 8967.71 5260.26C8975.71 5276.83 8990.58 5286.73 9037.23 5306.95C9123.14 5343.88 9159.89 5368.26 9182.73 5402.95C9208.23 5441.61 9213.97 5503.33 9196.64 5549.23C9177.59 5599.15 9130.36 5633.05 9063.89 5644.3C9043.32 5647.91 8994.56 5647.35 8972.47 5643.36C8924.28 5634.79 8878.57 5610.98 8850.37 5579.74C8839.31 5567.55 8817.8 5535.73 8819.13 5533.43C8819.69 5532.68 8824.66 5529.62 8830.19 5526.38L8874.76 5500.69L8909.26 5480.68L8916.5 5491.37C8926.59 5506.8 8948.69 5527.93 8962.03 5534.98C9000.31 5555.18 9052.89 5552.31 9078.78 5529.08C9089.84 5518.99 9094.4 5508.51 9094.4 5493.08C9094.4 5479.16 9092.71 5473.07 9085.46 5462.61C9076.12 5449.3 9057.07 5438.05 9002.96 5414.61C8941.04 5387.95 8914.38 5371.37 8890.01 5345.08C8875.91 5329.84 8862.58 5305.46 8857.04 5285.08C8852.47 5268.13 8851.33 5225.65 8854.94 5208.51C8867.69 5148.51 8912.84 5106.98 8978 5094.6C8999.15 5090.61 9048.31 5092.13 9069.05 5097.26L9069.07 5097.19ZM8787.35 5147.25L8787.72 5196.38H8631.54V5640.19H8521.06V5196.38H8364.88V5148.19L8366.19 5098.69C8366.75 5097.94 8461.81 5097.56 8577.05 5097.75L8786.77 5098.31L8787.35 5147.25Z" fill="#007ACC"/>
</g>
<path d="M10136.9 5246.25C10153.7 5235 10168.7 5206.88 10159.4 5186.25C10136.9 5197.5 10138.7 5220 10136.9 5246.25Z" fill="#E3E3F8"/>
<path d="M10403.1 5310C10421.9 5304.38 10440.6 5283.75 10429.4 5261.25C10416.2 5270.63 10406.9 5285.63 10403.1 5310Z" fill="#E3E3F8"/>
<path d="M9880 5619.37C9880 5643.74 9885.62 5668.12 9902.5 5677.49C9962.5 5711.24 10176.2 5684.99 10247.5 5668.12C10285 5658.74 10316.9 5630.62 10350.6 5615.62C10431.2 5579.99 10489.4 5551.87 10553.1 5506.87C10600 5473.12 10673.1 5377.49 10680.6 5319.37L10618.7 5306.24C10616.9 5369.99 10601.9 5384.99 10545.6 5399.99C10506.2 5411.24 10431.2 5413.12 10391.9 5405.62C10339.4 5396.24 10316.9 5369.99 10292.5 5338.12C10247.5 5278.12 10301.9 5234.99 10230.6 5231.24C10155.6 5324.99 10020.6 5257.49 9962.5 5248.12C9938.12 5283.74 9878.12 5519.99 9880 5574.37C9915.62 5561.24 9940 5576.24 9971.87 5587.49C10086.2 5632.49 9986.87 5671.87 9940 5660.62C9908.12 5653.12 9898.75 5632.49 9880 5619.37V5619.37Z" fill="#FDFDFD"/>
<path d="M10031.9 5083.12C10078.8 5092.49 10120 5111.24 10159.4 5131.87C10225 5163.74 10236.2 5159.99 10241.9 5204.99C10241.9 5212.49 10241.9 5218.12 10264.4 5225.62C10303.8 5238.74 10241.9 5216.24 10346.9 5216.24C10410.6 5216.24 10555 5242.49 10601.9 5272.49C10620.6 5285.62 10616.9 5300.62 10682.5 5298.74C10682.5 5221.87 10661.9 5105.62 10630 5034.37C10592.5 4948.12 10543.8 4934.99 10444.4 4903.12C10386.3 4884.37 10215.6 4863.74 10161.3 4897.49C10110.6 4929.37 10101.3 4964.99 10056.3 5030.62C10045 5045.62 10039.4 5060.62 10031.9 5083.12V5083.12Z" fill="#FDFDFD"/>
<path d="M10442.5 5240.62C10480 5255.62 10440.6 5354.99 10388.1 5330.62C10371.3 5283.74 10410.6 5255.62 10421.9 5234.99C10399.4 5231.24 10335.6 5221.87 10316.9 5229.37C10292.5 5238.74 10286.9 5291.24 10300 5315.62C10360 5433.74 10624.4 5407.49 10596.3 5317.49C10585 5279.99 10573.8 5274.37 10536.3 5261.24C10506.3 5251.87 10476.3 5240.62 10442.5 5240.62V5240.62Z" fill="#FDFDFD"/>
<path d="M9973.75 5227.49C10003.8 5255.61 10071.3 5261.24 10114.4 5263.11C10120 5204.99 10125.6 5161.86 10170.6 5165.61C10193.1 5197.49 10181.9 5233.11 10157.5 5257.49C10198.8 5257.49 10221.3 5225.61 10215.6 5182.49C10181.9 5158.11 10076.9 5107.49 10024.4 5101.86C10011.3 5116.86 9975.63 5201.24 9973.75 5227.49V5227.49Z" fill="#FDFDFD"/>
<path d="M9902.5 5598.75C9926.87 5596.88 9990.63 5615.63 9996.25 5636.25C9956.88 5640 9906.25 5636.25 9902.5 5598.75ZM9880 5619.38C9898.75 5632.5 9908.13 5653.13 9940 5660.63C9986.88 5671.88 10086.3 5632.5 9971.88 5587.5C9940 5574.38 9915.62 5561.25 9880 5574.38C9880 5520 9938.13 5285.63 9962.5 5248.13C10020.6 5257.5 10155.6 5325 10230.6 5231.25C10303.7 5235 10247.5 5278.13 10292.5 5338.13C10316.9 5370 10339.4 5396.25 10391.9 5405.63C10431.2 5413.13 10506.2 5409.38 10545.6 5400C10603.7 5385 10616.9 5370 10618.7 5306.25L10682.5 5321.25C10675 5379.38 10601.9 5475 10555 5508.75C10491.2 5555.63 10433.1 5583.75 10352.5 5617.5C10316.9 5632.5 10286.9 5660.63 10249.4 5670C10176.2 5686.88 9964.38 5713.13 9904.38 5679.38C9885.63 5668.13 9880 5643.75 9880 5619.38V5619.38ZM10403.1 5310C10405 5285.63 10414.4 5270.63 10429.4 5261.25C10440.6 5283.75 10421.9 5304.38 10403.1 5310ZM10442.5 5240.63C10476.2 5240.63 10506.2 5251.88 10536.2 5261.25C10573.7 5274.38 10585 5280 10596.2 5317.5C10624.4 5409.38 10360 5433.75 10300 5315.63C10286.9 5291.25 10292.5 5238.75 10316.9 5229.38C10335.6 5221.88 10399.4 5233.13 10421.9 5235C10412.5 5257.5 10373.1 5283.75 10390 5332.5C10440.6 5355 10480 5257.5 10442.5 5240.63ZM10136.9 5246.25C10136.9 5220 10136.9 5197.5 10159.4 5186.25C10168.7 5206.88 10155.6 5235 10136.9 5246.25ZM9973.75 5227.5C9975.63 5201.25 10011.2 5115 10026.2 5100C10078.7 5107.5 10183.7 5156.25 10217.5 5180.63C10223.1 5225.63 10200.6 5255.63 10159.4 5255.63C10183.7 5231.25 10195 5195.63 10172.5 5163.75C10125.6 5160 10121.9 5203.13 10116.2 5261.25C10071.2 5261.25 10003.8 5257.5 9973.75 5227.5V5227.5ZM9936.25 5197.5C9923.13 5160 9923.13 5100 9981.25 5094.38L9951.25 5176.88C9941.88 5197.5 9941.88 5193.75 9936.25 5197.5V5197.5ZM10031.9 5083.13C10041.2 5060.63 10045 5047.5 10058.1 5026.88C10105 4961.25 10114.4 4925.63 10163.1 4893.75C10215.6 4860 10388.1 4880.63 10446.2 4899.38C10545.6 4931.25 10594.4 4944.38 10631.9 5030.63C10661.9 5101.88 10682.5 5218.13 10684.4 5295C10618.7 5296.88 10622.5 5281.88 10603.8 5268.75C10556.9 5238.75 10412.5 5214.38 10348.7 5212.5C10241.9 5212.5 10305.6 5235 10266.2 5221.88C10241.9 5214.38 10243.7 5210.63 10243.7 5201.25C10238.1 5156.25 10226.9 5160 10161.2 5128.13C10120 5111.25 10078.8 5090.63 10031.9 5083.13ZM10693.7 5064.38C10686.2 5040 10699.4 5041.88 10721.9 5026.88C10735 5017.5 10746.2 5008.13 10761.2 4998.75C10821.2 4965 10933.8 4959.38 10982.5 4998.75C11001.3 5015.63 11033.1 5045.63 11029.4 5086.88C11020 5169.38 10963.8 5214.38 10916.9 5251.88C10870 5289.38 10793.1 5328.75 10712.5 5302.5C10705 5285.63 10710.6 5182.5 10703.1 5143.13C10695.6 5109.38 10699.4 5105.63 10720 5085C10778.1 5025 10905.6 4980 10976.9 5032.5C11006.9 5055 10999.4 5064.38 11014.4 5081.25C11033.1 5060.63 10997.5 4989.38 10864.4 4995C10770.6 4996.88 10731.2 5068.13 10693.7 5064.38V5064.38ZM10148.1 4850.63C10150 4798.13 10198.7 4691.25 10245.6 4653.75C10303.7 4608.75 10363.7 4567.5 10453.8 4616.25C10476.3 4629.38 10474.4 4635 10476.3 4665C10478.1 4695 10476.2 4706.25 10468.7 4728.75C10408.7 4920 10360 4809.38 10170.6 4854.38C10178.1 4792.5 10232.5 4736.25 10260.6 4708.13C10311.2 4657.5 10348.8 4625.63 10425.6 4636.88C10446.3 4672.5 10450 4695 10423.7 4736.25C10390 4792.5 10380.6 4788.75 10386.2 4826.25C10412.5 4818.75 10421.9 4792.5 10433.1 4766.25C10508.1 4608.75 10399.4 4590 10331.9 4618.13C10286.9 4636.88 10206.2 4725 10180 4779.38C10174.4 4790.63 10168.7 4803.75 10165 4815L10148.1 4850.63ZM10444.4 4858.13C10451.9 4811.25 10498.7 4800 10498.7 4655.63C10498.7 4593.75 10421.9 4537.5 10322.5 4578.75C10236.3 4614.38 10223.1 4640.63 10178.1 4710C10135 4775.63 10136.9 4846.88 10099.4 4906.88C10088.1 4923.75 10078.8 4929.38 10067.5 4948.13C10058.1 4961.25 10052.5 4976.25 10043.1 4991.25C10026.3 5019.38 10007.5 5041.88 9992.5 5075.63C9947.5 5077.5 9910 5077.5 9906.25 5124.38C9900.62 5188.13 9930.63 5203.13 9930.63 5227.5C9930.63 5253.75 9825.62 5514.38 9855.62 5668.13C9863.12 5711.25 9891.25 5711.25 9936.25 5716.88C10045 5730 10183.7 5726.25 10281.2 5686.88L10457.5 5602.5C10502.5 5578.13 10577.5 5529.38 10609.4 5495.63C10633.7 5471.25 10645 5450.63 10665.6 5422.5C10693.7 5381.25 10693.7 5383.13 10699.4 5328.75C10736.9 5336.25 10804.4 5351.25 10826.9 5371.88C10825 5398.13 10811.9 5385 10811.9 5409.38C10826.9 5409.38 10851.2 5390.63 10856.9 5371.88C10841.9 5349.38 10825 5353.13 10802.5 5334.38C10819.4 5321.25 10851.3 5313.75 10875.6 5304.38C10928.1 5281.88 11018.1 5216.25 11038.8 5156.25C11055.6 5107.5 11042.5 5026.88 11014.4 4996.88C10984.4 4963.13 10915 4946.25 10858.7 4946.25C10791.2 4946.25 10721.9 4995 10665.6 5015.63C10645 4996.88 10643.1 4976.25 10628.1 4955.63C10615 4931.25 10498.8 4871.25 10444.4 4858.13V4858.13Z" fill="#020202"/>
<path d="M10693.8 5064.38C10731.3 5068.13 10770.6 4996.88 10862.5 4993.13C10995.6 4989.38 11033.1 5058.76 11012.5 5079.38C10997.5 5062.51 11005 5053.13 10975 5030.63C10903.8 4978.13 10776.3 5023.13 10718.1 5083.13C10697.5 5103.76 10693.8 5107.51 10701.3 5141.26C10708.8 5180.63 10703.1 5283.76 10710.6 5300.63C10791.3 5326.88 10868.1 5287.51 10915 5250.01C10961.9 5212.51 11016.3 5167.51 11027.5 5085.01C11033.1 5043.76 11001.3 5011.88 10980.6 4996.88C10931.9 4957.51 10821.3 4963.13 10759.4 4996.88C10742.5 5006.26 10733.1 5015.63 10720 5025.01C10699.4 5041.88 10686.3 5040.01 10693.8 5064.38V5064.38Z" fill="#FDF2F2"/>
<path d="M10148.1 4850.62L10166.9 4818.75C10172.5 4807.5 10178.1 4794.37 10181.9 4783.12C10208.1 4730.62 10288.8 4642.5 10333.8 4621.87C10401.3 4593.75 10510 4612.5 10435 4770C10421.9 4796.25 10414.4 4822.5 10388.1 4830C10382.5 4792.5 10391.9 4796.25 10425.6 4740C10451.9 4698.75 10450 4676.25 10427.5 4640.62C10350.6 4629.37 10313.1 4663.12 10262.5 4711.87C10232.5 4740 10178.1 4796.25 10172.5 4858.12C10361.9 4813.12 10410.6 4921.87 10470.6 4732.5C10478.1 4708.12 10480 4696.87 10478.1 4668.75C10476.3 4638.75 10476.3 4631.25 10455.6 4620C10367.5 4569.37 10305.6 4612.5 10247.5 4657.5C10198.8 4691.25 10150 4800 10148.1 4850.62V4850.62Z" fill="#FEF3F3"/>
<path d="M9936.25 5197.51C9943.75 5191.88 9943.75 5195.63 9951.25 5178.76L9981.25 5096.26C9921.25 5100.01 9921.25 5160.01 9936.25 5197.51Z" fill="#EFEFEF"/>
<path d="M9996.25 5636.26C9990.63 5615.63 9926.88 5596.88 9902.5 5598.76C9906.25 5636.26 9956.88 5640.01 9996.25 5636.26Z" fill="#FAF1F1"/>
<g clip-path="url(#clip1)">
<path d="M12546 4773.57H12478.6C12465.6 4773.57 12455.1 4784.07 12455.1 4797.01V4807.28C12455.1 4820.22 12465.6 4830.72 12478.6 4830.72H12546C12558.9 4830.72 12569.4 4820.22 12569.4 4807.28V4797.01C12569.4 4784.07 12558.9 4773.57 12546 4773.57Z" fill="#56B3B4"/>
<path d="M11917.4 5687.86H11621.4C11608.5 5687.86 11598 5698.35 11598 5711.3V5721.56C11598 5734.51 11608.5 5745 11621.4 5745H11917.4C11930.4 5745 11940.9 5734.51 11940.9 5721.56V5711.3C11940.9 5698.35 11930.4 5687.86 11917.4 5687.86Z" fill="#EA5E5E"/>
<path d="M12488.8 5230.72H12307.2C12294.2 5230.72 12283.7 5241.21 12283.7 5254.15V5264.42C12283.7 5277.37 12294.2 5287.86 12307.2 5287.86H12488.8C12501.8 5287.86 12512.3 5277.37 12512.3 5264.42V5254.15C12512.3 5241.21 12501.8 5230.72 12488.8 5230.72Z" fill="#BF85BF"/>
<path d="M12203.1 5230.72H11964.3C11951.3 5230.72 11940.9 5241.21 11940.9 5254.15V5264.42C11940.9 5277.37 11951.3 5287.86 11964.3 5287.86H12203.1C12216.1 5287.86 12226.6 5277.37 12226.6 5264.42V5254.15C12226.6 5241.21 12216.1 5230.72 12203.1 5230.72Z" fill="#EA5E5E"/>
<path d="M11860.3 5230.72H11621.4C11608.5 5230.72 11598 5241.21 11598 5254.15V5264.42C11598 5277.37 11608.5 5287.86 11621.4 5287.86H11860.3C11873.2 5287.86 11883.7 5277.37 11883.7 5264.42V5254.15C11883.7 5241.21 11873.2 5230.72 11860.3 5230.72Z" fill="#56B3B4"/>
<path d="M11917.4 5459.29H11621.4C11608.5 5459.29 11598 5469.78 11598 5482.73V5492.99C11598 5505.94 11608.5 5516.43 11621.4 5516.43H11917.4C11930.4 5516.43 11940.9 5505.94 11940.9 5492.99V5482.73C11940.9 5469.78 11930.4 5459.29 11917.4 5459.29Z" fill="#BF85BF"/>
<path d="M11917.4 5002.15H11621.4C11608.5 5002.15 11598 5012.64 11598 5025.58V5035.85C11598 5048.79 11608.5 5059.29 11621.4 5059.29H11917.4C11930.4 5059.29 11940.9 5048.79 11940.9 5035.85V5025.58C11940.9 5012.64 11930.4 5002.15 11917.4 5002.15Z" fill="#BF85BF"/>
<path d="M12488.8 4659.29H11907.2C11894.2 4659.29 11883.7 4669.78 11883.7 4682.73V4692.99C11883.7 4705.94 11894.2 4716.43 11907.2 4716.43H12488.8C12501.8 4716.43 12512.3 4705.94 12512.3 4692.99V4682.73C12512.3 4669.78 12501.8 4659.29 12488.8 4659.29Z" fill="#F7BA3E"/>
<path d="M11803.1 4659.29H11621.4C11608.5 4659.29 11598 4669.78 11598 4682.73V4692.99C11598 4705.94 11608.5 4716.43 11621.4 4716.43H11803.1C11816.1 4716.43 11826.6 4705.94 11826.6 4692.99V4682.73C11826.6 4669.78 11816.1 4659.29 11803.1 4659.29Z" fill="#EA5E5E"/>
<path d="M11917.4 5573.57H11850C11837.1 5573.57 11826.6 5584.07 11826.6 5597.01V5607.28C11826.6 5620.22 11837.1 5630.72 11850 5630.72H11917.4C11930.4 5630.72 11940.9 5620.22 11940.9 5607.28V5597.01C11940.9 5584.07 11930.4 5573.57 11917.4 5573.57Z" fill="#F7BA3E"/>
<path d="M11917.4 4887.86H11850C11837.1 4887.86 11826.6 4898.35 11826.6 4911.3V4921.56C11826.6 4934.51 11837.1 4945 11850 4945H11917.4C11930.4 4945 11940.9 4934.51 11940.9 4921.56V4911.3C11940.9 4898.35 11930.4 4887.86 11917.4 4887.86Z" fill="#56B3B4"/>
<path d="M11746 5573.57H11621.4C11608.5 5573.57 11598 5584.07 11598 5597.01V5607.28C11598 5620.22 11608.5 5630.72 11621.4 5630.72H11746C11758.9 5630.72 11769.4 5620.22 11769.4 5607.28V5597.01C11769.4 5584.07 11758.9 5573.57 11746 5573.57Z" fill="#56B3B4"/>
<path d="M11746 4887.86H11621.4C11608.5 4887.86 11598 4898.35 11598 4911.3V4921.56C11598 4934.51 11608.5 4945 11621.4 4945H11746C11758.9 4945 11769.4 4934.51 11769.4 4921.56V4911.3C11769.4 4898.35 11758.9 4887.86 11746 4887.86Z" fill="#F7BA3E"/>
<path opacity="0.5" d="M12431.7 5573.57H12364.3C12351.4 5573.57 12340.9 5584.07 12340.9 5597.01V5607.28C12340.9 5620.22 12351.4 5630.72 12364.3 5630.72H12431.7C12444.6 5630.72 12455.1 5620.22 12455.1 5607.28V5597.01C12455.1 5584.07 12444.6 5573.57 12431.7 5573.57Z" fill="#D0D4D8"/>
<path opacity="0.5" d="M12260.3 5573.57H12021.4C12008.5 5573.57 11998 5584.07 11998 5597.01V5607.28C11998 5620.22 12008.5 5630.72 12021.4 5630.72H12260.3C12273.2 5630.72 12283.7 5620.22 12283.7 5607.28V5597.01C12283.7 5584.07 12273.2 5573.57 12260.3 5573.57Z" fill="#D0D4D8"/>
<path opacity="0.5" d="M12774.6 5573.57H12535.7C12522.8 5573.57 12512.3 5584.07 12512.3 5597.01V5607.28C12512.3 5620.22 12522.8 5630.72 12535.7 5630.72H12774.6C12787.5 5630.72 12798 5620.22 12798 5607.28V5597.01C12798 5584.07 12787.5 5573.57 12774.6 5573.57Z" fill="#D0D4D8"/>
<path d="M12546 5116.43H12078.6C12065.6 5116.43 12055.1 5126.92 12055.1 5139.87V5150.14C12055.1 5163.08 12065.6 5173.57 12078.6 5173.57H12546C12558.9 5173.57 12569.4 5163.08 12569.4 5150.14V5139.87C12569.4 5126.92 12558.9 5116.43 12546 5116.43Z" fill="#56B3B4"/>
<path d="M11974.6 5116.43H11792.9C11779.9 5116.43 11769.4 5126.92 11769.4 5139.87V5150.14C11769.4 5163.08 11779.9 5173.57 11792.9 5173.57H11974.6C11987.5 5173.57 11998 5163.08 11998 5150.14V5139.87C11998 5126.92 11987.5 5116.43 11974.6 5116.43Z" fill="#F7BA3E"/>
<path d="M11688.8 5116.43H11621.4C11608.5 5116.43 11598 5126.92 11598 5139.87V5150.14C11598 5163.08 11608.5 5173.57 11621.4 5173.57H11688.8C11701.8 5173.57 11712.3 5163.08 11712.3 5150.14V5139.87C11712.3 5126.92 11701.8 5116.43 11688.8 5116.43Z" fill="#EA5E5E"/>
<path d="M12374.6 4773.57H12135.7C12122.8 4773.57 12112.3 4784.07 12112.3 4797.01V4807.28C12112.3 4820.22 12122.8 4830.72 12135.7 4830.72H12374.6C12387.5 4830.72 12398 4820.22 12398 4807.28V4797.01C12398 4784.07 12387.5 4773.57 12374.6 4773.57Z" fill="#BF85BF"/>
<path d="M12031.7 4773.57H11621.4C11608.5 4773.57 11598 4784.07 11598 4797.01V4807.28C11598 4820.22 11608.5 4830.72 11621.4 4830.72H12031.7C12044.6 4830.72 12055.1 4820.22 12055.1 4807.28V4797.01C12055.1 4784.07 12044.6 4773.57 12031.7 4773.57Z" fill="#56B3B4"/>
<path d="M12317.4 5345H11792.9C11779.9 5345 11769.4 5355.5 11769.4 5368.44V5378.71C11769.4 5391.65 11779.9 5402.14 11792.9 5402.14H12317.4C12330.4 5402.14 12340.9 5391.65 12340.9 5378.71V5368.44C12340.9 5355.5 12330.4 5345 12317.4 5345Z" fill="#F7BA3E"/>
<path d="M11688.8 5345H11621.4C11608.5 5345 11598 5355.5 11598 5368.44V5378.71C11598 5391.65 11608.5 5402.14 11621.4 5402.14H11688.8C11701.8 5402.14 11712.3 5391.65 11712.3 5378.71V5368.44C11712.3 5355.5 11701.8 5345 11688.8 5345Z" fill="#BF85BF"/>
<path d="M12603.1 4887.86H12307.2C12294.2 4887.86 12283.7 4898.35 12283.7 4911.3V4921.56C12283.7 4934.51 12294.2 4945 12307.2 4945H12603.1C12616.1 4945 12626.6 4934.51 12626.6 4921.56V4911.3C12626.6 4898.35 12616.1 4887.86 12603.1 4887.86Z" fill="#EA5E5E"/>
<path d="M12603.1 5002.15H12307.2C12294.2 5002.15 12283.7 5012.64 12283.7 5025.58V5035.85C12283.7 5048.79 12294.2 5059.29 12307.2 5059.29H12603.1C12616.1 5059.29 12626.6 5048.79 12626.6 5035.85V5025.58C12626.6 5012.64 12616.1 5002.15 12603.1 5002.15Z" fill="#F7BA3E"/>
<path d="M12317.4 4545H11621.4C11608.5 4545 11598 4555.5 11598 4568.44V4578.71C11598 4591.65 11608.5 4602.14 11621.4 4602.14H12317.4C12330.4 4602.14 12340.9 4591.65 12340.9 4578.71V4568.44C12340.9 4555.5 12330.4 4545 12317.4 4545Z" fill="#56B3B4"/>
<path opacity="0.5" d="M12774.6 4545H12421.4C12408.5 4545 12398 4555.5 12398 4568.44V4578.71C12398 4591.65 12408.5 4602.14 12421.4 4602.14H12774.6C12787.5 4602.14 12798 4591.65 12798 4578.71V4568.44C12798 4555.5 12787.5 4545 12774.6 4545Z" fill="#D0D4D8"/>
<path opacity="0.5" d="M12546 5345H12421.4C12408.5 5345 12398 5355.5 12398 5368.44V5378.71C12398 5391.65 12408.5 5402.14 12421.4 5402.14H12546C12558.9 5402.14 12569.4 5391.65 12569.4 5378.71V5368.44C12569.4 5355.5 12558.9 5345 12546 5345Z" fill="#D0D4D8"/>
<path opacity="0.5" d="M12774.6 5345H12650C12637.1 5345 12626.6 5355.5 12626.6 5368.44V5378.71C12626.6 5391.65 12637.1 5402.14 12650 5402.14H12774.6C12787.5 5402.14 12798 5391.65 12798 5378.71V5368.44C12798 5355.5 12787.5 5345 12774.6 5345Z" fill="#D0D4D8"/>
<path opacity="0.5" d="M12774.6 5230.72H12592.9C12579.9 5230.72 12569.4 5241.21 12569.4 5254.15V5264.42C12569.4 5277.37 12579.9 5287.86 12592.9 5287.86H12774.6C12787.5 5287.86 12798 5277.37 12798 5264.42V5254.15C12798 5241.21 12787.5 5230.72 12774.6 5230.72Z" fill="#D0D4D8"/>
<path opacity="0.5" d="M12774.6 4659.29H12592.9C12579.9 4659.29 12569.4 4669.78 12569.4 4682.73V4692.99C12569.4 4705.94 12579.9 4716.43 12592.9 4716.43H12774.6C12787.5 4716.43 12798 4705.94 12798 4692.99V4682.73C12798 4669.78 12787.5 4659.29 12774.6 4659.29Z" fill="#D0D4D8"/>
<path opacity="0.5" d="M12774.6 5116.43H12650C12637.1 5116.43 12626.6 5126.92 12626.6 5139.87V5150.14C12626.6 5163.08 12637.1 5173.57 12650 5173.57H12774.6C12787.5 5173.57 12798 5163.08 12798 5150.14V5139.87C12798 5126.92 12787.5 5116.43 12774.6 5116.43Z" fill="#D0D4D8"/>
<path opacity="0.5" d="M12774.6 4773.57H12650C12637.1 4773.57 12626.6 4784.07 12626.6 4797.01V4807.28C12626.6 4820.22 12637.1 4830.72 12650 4830.72H12774.6C12787.5 4830.72 12798 4820.22 12798 4807.28V4797.01C12798 4784.07 12787.5 4773.57 12774.6 4773.57Z" fill="#D0D4D8"/>
<path opacity="0.5" d="M12774.6 4887.86H12707.2C12694.2 4887.86 12683.7 4898.35 12683.7 4911.3V4921.56C12683.7 4934.51 12694.2 4945 12707.2 4945H12774.6C12787.5 4945 12798 4934.51 12798 4921.56V4911.3C12798 4898.35 12787.5 4887.86 12774.6 4887.86Z" fill="#D0D4D8"/>
<path opacity="0.5" d="M12774.6 5002.15H12707.2C12694.2 5002.15 12683.7 5012.64 12683.7 5025.58V5035.85C12683.7 5048.79 12694.2 5059.29 12707.2 5059.29H12774.6C12787.5 5059.29 12798 5048.79 12798 5035.85V5025.58C12798 5012.64 12787.5 5002.15 12774.6 5002.15Z" fill="#D0D4D8"/>
<path opacity="0.5" d="M12774.6 5459.29H12250C12237.1 5459.29 12226.6 5469.78 12226.6 5482.73V5492.99C12226.6 5505.94 12237.1 5516.43 12250 5516.43H12774.6C12787.5 5516.43 12798 5505.94 12798 5492.99V5482.73C12798 5469.78 12787.5 5459.29 12774.6 5459.29Z" fill="#D0D4D8"/>
<path opacity="0.5" d="M12146 5459.29H12021.4C12008.5 5459.29 11998 5469.78 11998 5482.73V5492.99C11998 5505.94 12008.5 5516.43 12021.4 5516.43H12146C12158.9 5516.43 12169.4 5505.94 12169.4 5492.99V5482.73C12169.4 5469.78 12158.9 5459.29 12146 5459.29Z" fill="#D0D4D8"/>
<path opacity="0.5" d="M12774.6 5687.86H12478.6C12465.6 5687.86 12455.1 5698.35 12455.1 5711.3V5721.56C12455.1 5734.51 12465.6 5745 12478.6 5745H12774.6C12787.5 5745 12798 5734.51 12798 5721.56V5711.3C12798 5698.35 12787.5 5687.86 12774.6 5687.86Z" fill="#D0D4D8"/>
<path opacity="0.5" d="M12374.6 5687.86H12021.4C12008.5 5687.86 11998 5698.35 11998 5711.3V5721.56C11998 5734.51 12008.5 5745 12021.4 5745H12374.6C12387.5 5745 12398 5734.51 12398 5721.56V5711.3C12398 5698.35 12387.5 5687.86 12374.6 5687.86Z" fill="#D0D4D8"/>
<path opacity="0.5" d="M12203.1 4887.86H12021.4C12008.5 4887.86 11998 4898.35 11998 4911.3V4921.56C11998 4934.51 12008.5 4945 12021.4 4945H12203.1C12216.1 4945 12226.6 4934.51 12226.6 4921.56V4911.3C12226.6 4898.35 12216.1 4887.86 12203.1 4887.86Z" fill="#D0D4D8"/>
<path opacity="0.5" d="M12203.1 5002.15H12021.4C12008.5 5002.15 11998 5012.64 11998 5025.58V5035.85C11998 5048.79 12008.5 5059.29 12021.4 5059.29H12203.1C12216.1 5059.29 12226.6 5048.79 12226.6 5035.85V5025.58C12226.6 5012.64 12216.1 5002.15 12203.1 5002.15Z" fill="#D0D4D8"/>
</g>
<path d="M13881.2 4997.91L14115 4862.97C14117.9 4861.32 14121.1 4860.44 14124.4 4860.44C14127.8 4860.44 14131 4861.32 14133.9 4862.97L14367.7 4997.91C14370.6 4999.57 14372.9 5001.95 14374.6 5004.83C14376.3 5007.7 14377.1 5010.96 14377.1 5014.28V5284.2C14377.1 5287.52 14376.3 5290.78 14374.6 5293.65C14372.9 5296.53 14370.6 5298.91 14367.7 5300.57L14133.9 5435.51C14131 5437.16 14127.8 5438.04 14124.4 5438.04C14121.1 5438.04 14117.9 5437.16 14115 5435.51L13881.2 5300.57C13878.3 5298.91 13875.9 5296.53 13874.3 5293.65C13872.6 5290.78 13871.7 5287.52 13871.7 5284.2V5014.28C13871.7 5010.96 13872.6 5007.7 13874.3 5004.83C13875.9 5001.95 13878.3 4999.57 13881.2 4997.91" fill="#8080F2"/>
<path d="M14732.2 5120.84L14452.7 4634.92C14442.5 4617.32 14423.8 4604.39 14403.5 4604.39H13844.8C13824.6 4604.39 13805.8 4617.35 13795.6 4634.92L13516.6 5119.78C13511.6 5128.51 13509 5138.39 13509 5148.44C13509 5158.5 13511.6 5168.38 13516.6 5177.11L13795.9 5659.08C13806 5676.68 13824.8 5685.64 13845.1 5685.64H14403.7C14424 5685.64 14442.8 5676.92 14452.9 5659.35L14732.2 5176.6C14742.4 5159 14742.4 5138.47 14732.2 5120.6V5120.84ZM14500.7 5354.28C14500.7 5361.43 14496.4 5368.04 14490.2 5371.62L14134.4 5576.9C14131.3 5578.65 14127.8 5579.57 14124.3 5579.57C14120.8 5579.57 14117.3 5578.65 14114.2 5576.9L13758.2 5371.62C13755.1 5369.88 13752.5 5367.37 13750.6 5364.34C13748.8 5361.3 13747.8 5357.83 13747.7 5354.28V4943.94C13747.7 4936.79 13751.9 4930.18 13758.1 4926.6L14113.9 4721.32C14117 4719.57 14120.4 4718.65 14124 4718.65C14127.5 4718.65 14130.9 4719.57 14134 4721.32L14490.4 4926.34C14493.5 4928.06 14496.1 4930.57 14498 4933.61C14499.8 4936.65 14500.8 4940.11 14500.9 4943.67L14500.7 5354.28Z" fill="#4B32C3"/>
<path d="M14880.3 5343.4V4960.57H15100.9V5001.43H14928.8V5121.43H15074.1V5162.87H14928.8V5301.53H15106.8V5342.97L14880.3 5343.4ZM15294.3 5350.44C15267.6 5350.44 15242.7 5345.37 15219.6 5335.24C15196.5 5325.11 15176.7 5311.29 15160.1 5293.8L15189.3 5259.93C15202.9 5274.16 15218.8 5285.83 15237.1 5294.95C15255.8 5303.48 15275.1 5307.75 15294.9 5307.75C15320.2 5307.75 15339.8 5302.1 15353.6 5290.81C15367.6 5279.13 15374.6 5263.96 15374.6 5245.29C15374.6 5235.57 15372.8 5227.39 15369.3 5220.76C15366.2 5213.76 15361.8 5207.92 15355.9 5203.24C15350.5 5198.17 15343.9 5193.7 15336.1 5189.83C15328.3 5185.92 15319.9 5181.83 15311 5177.56L15256.2 5153.64C15247.2 5149.73 15238.1 5145.06 15228.7 5139.64C15219.4 5134.2 15211 5127.59 15203.6 5119.8C15196.2 5112.01 15190.2 5102.86 15185.6 5092.33C15180.9 5081.44 15178.5 5068.99 15178.5 5055C15178.5 5040.78 15181.5 5027.44 15187.3 5015C15193.5 5002.56 15201.9 4991.85 15212.4 4982.89C15223.2 4973.56 15235.9 4966.45 15250.3 4961.56C15265.1 4956.49 15281.2 4953.96 15298.8 4953.96C15321.9 4953.96 15343.1 4958.43 15362.4 4967.37C15381.8 4975.91 15398.4 4987.2 15412 5001.24L15386 5033C15374.3 5021.71 15361.3 5012.96 15346.9 5006.73C15332.9 5000.12 15316.9 4996.81 15299 4996.81C15277.6 4996.81 15260.3 5001.88 15247.1 5012.01C15234.3 5021.74 15227.8 5035.36 15227.8 5052.87C15227.8 5062.2 15229.6 5070.17 15233.1 5076.79C15237 5083.01 15242.1 5088.65 15248.3 5093.72C15254.5 5098.4 15261.3 5102.66 15268.7 5106.52C15276.1 5110.02 15283.7 5113.33 15291.5 5116.44L15345.8 5139.77C15356.7 5144.45 15367 5149.9 15376.7 5156.12C15386.4 5161.95 15394.8 5168.96 15401.8 5177.13C15408.8 5184.92 15414.2 5194.25 15418.1 5205.13C15422.4 5215.8 15424.5 5228.07 15424.5 5241.93C15424.5 5257.12 15421.4 5271.32 15415.2 5284.55C15409.3 5297.77 15400.8 5309.44 15389.5 5319.56C15378.2 5329.28 15364.6 5337.06 15348.6 5342.89C15332.7 5348.33 15314.6 5351.05 15294.4 5351.05L15294.3 5350.44ZM15499.3 5343.4V4960.57H15547.7V5301.99H15715.2V5343.43L15499.3 5343.4ZM15778.5 5343.4V5059.8H15826.3V5343.4H15778.5ZM15803 5001.4C15793.7 5001.4 15785.7 4998.48 15779.1 4992.65C15772.8 4986.82 15769.7 4979.43 15769.7 4970.47C15769.7 4961.13 15772.8 4953.74 15779.1 4948.28C15785.7 4942.45 15793.7 4939.53 15803 4939.53C15812.3 4939.53 15820.1 4942.45 15826.3 4948.28C15832.9 4953.72 15836.2 4961.12 15836.2 4970.47C15836.2 4979.41 15832.9 4986.8 15826.3 4992.65C15820.1 4998.48 15812.3 5001.4 15803 5001.4ZM15922.1 5343.4V5059.8H15962L15966.1 5100.65H15967.8C15981.5 5087.04 15995.7 5075.75 16010.5 5066.79C16025.6 5057.45 16043.2 5052.79 16063 5052.79C16092.9 5052.79 16114.7 5062.12 16128.3 5080.79C16142.3 5099.45 16149.3 5127.08 16149.3 5163.67V5343.4H16101.5V5170.07C16101.5 5143.4 16097.2 5124.14 16088.7 5112.28C16080.1 5100.23 16066.5 5094.2 16047.8 5094.2C16033 5094.2 16020 5097.9 16008.7 5105.29C15997.4 5112.69 15984.6 5123.59 15970.2 5137.99V5343.43L15922.1 5343.4ZM16330.5 5350.44C16315.4 5350.44 16302.5 5348.1 16292 5343.43C16281.9 5338.75 16273.5 5332.33 16267 5324.17C16260.7 5316 16256.3 5306.08 16253.6 5294.41C16250.8 5282.73 16249.5 5269.9 16249.5 5255.91V5098.57H16207.4V5062.39L16251.8 5059.72L16257.7 4980.33H16297.7V5059.72H16374.1V5098.81H16297.7V5256.15C16297.7 5273.66 16300.8 5287.28 16307 5297C16313.6 5306.33 16325.2 5311 16341.7 5311C16346.7 5311 16352.2 5310.22 16358 5308.65C16363.8 5307.09 16369.2 5305.34 16374 5303.4L16383.3 5339.59C16375.6 5342.31 16367 5344.64 16357.7 5346.6C16348.7 5348.91 16339.8 5350.07 16330.8 5350.07L16330.5 5350.44Z" fill="#CECECE"/>
<defs>
<clipPath id="clip0">
<rect width="1200" height="1200" fill="white" transform="translate(8102 4545)"/>
</clipPath>
<clipPath id="clip1">
<rect width="1200" height="1200" fill="white" transform="translate(11598 4545)"/>
</clipPath>
</defs>
</svg>
